<svg version="1.1" xmlns="http://www.w3.org/2000/svg" xmlns:xlink="http://www.w3.org/1999/xlink" width="387.91351" height="379.6508" viewBox="0,0,387.91351,379.6508"><g transform="translate(-44.14564,8.75001)"><g data-paper-data="{&quot;isPaintingLayer&quot;:true}" fill-rule="nonzero" stroke-linejoin="miter" stroke-miterlimit="10" stroke-dasharray="" stroke-dashoffset="0" style="mix-blend-mode: normal"><path d="M56.15766,363.84234v-150.65253c0.49059,-2.44258 0.84226,-4.89063 0.88006,-7.30002c0.06922,-4.41135 0.92229,-19.09322 -0.39062,-26.90625c-0.14837,-0.88291 -0.31461,-1.77116 -0.48944,-2.66338v-49.08491c0.54061,-1.41048 1.1404,-2.81524 1.46183,-4.26908c1.01624,-4.59653 0.574,-10.30725 0.574,-14.67883c0,-3.67659 -0.90918,-8.09216 -2.03583,-11.77417v-47.82495c0.01202,-0.13398 0.02394,-0.26762 0.03583,-0.40087c0.05412,-0.6066 0.03255,-1.21034 -0.03583,-1.81243v-50.31724h10.9495c0.81801,0.67709 1.67985,1.30309 2.58064,1.8731c1.60458,1.38577 3.98964,2.35383 6.80304,2.99304c1.92328,0.52048 3.93853,0.81719 6.01608,0.86046c7.19478,0.54562 15.36722,-0.25421 20.60717,-1.41271c3.0478,-0.67383 5.87987,-2.57639 9.00127,-2.58177c4.79425,-0.00827 10.88304,0.38512 16.03233,-0.34015c1.16878,-0.16462 3.63458,-0.74054 6.47527,-1.39198h22.72984c4.87084,1.38411 9.73972,2.81473 14.77866,3.3415c15.72375,1.64377 31.07782,1.19886 46.40625,-0.5071c2.03768,-0.22678 6.47191,2.04799 8.42363,2.4795c7.56835,1.67328 13.71883,2.574 21.67883,2.574c12.43021,0 24.59316,-5.81234 36.62298,-7.8786c0.01951,-0.00335 0.03942,-0.00645 0.05972,-0.0093h0.9189c2.26822,0.20564 6.305,1.59703 7.79594,1.73213c6.46192,0.58555 14.91726,1.55971 22.75284,0.77162c3.27011,1.52479 6.56861,3.01375 10.17079,3.81015c10.53574,2.32933 26.27707,-3.1692 37.97708,-6.3139h58.90392v26.46857c-0.51722,0.82478 -0.98763,1.68191 -1.40751,2.56765c-8.35693,11.78315 -8.72945,29.23569 -5.91163,42.59882c1.78022,8.44244 2.38192,15.21084 2.51452,24.0971c0.03535,2.36876 0.98366,4.76114 1,7.07764c0.02393,3.39188 -0.99642,25.35722 0.17799,37.10139c0.54648,5.4648 2.17745,11.12851 3.62663,16.38396v61.81179c-0.21883,0.6468 -0.44788,1.28501 -0.68822,1.91271c-2.85124,7.44647 -5.9605,14.37285 -6.1164,22.71251c-0.09252,4.94915 -0.75119,16.11142 0.39063,22.90625c0.74731,4.44717 2.34987,8.54351 2.60938,13.09375c0.17091,2.99673 2.71318,11.00622 2,12.93061c-2.59808,7.01041 -6.79069,13.0878 -7,21.06939c-0.1233,4.70177 -0.81638,15.31863 0.66954,20.49386c1.0832,3.77261 3.32249,7.25352 4.6561,10.76254c1.42174,3.7409 1.98637,7.69372 3.47898,11.33631v12.35985h-46.48913c-0.79925,-0.29114 -1.56772,-0.59003 -2.23365,-0.94426c-16.10008,-8.56412 -31.94472,-9.56221 -49.39434,-3.69959c-1.55847,0.52361 -7.48471,-1.53218 -9.78125,-1.91809c-6.65845,-1.1189 -14.02563,-3.69672 -20.8125,-2c-7.42463,1.85616 -10.92501,2.93172 -15.85138,8.56193h-4.61087c-2.56575,-2.06474 -5.52502,-3.64543 -8.66771,-4.65736c-2.57022,-0.8276 -5.26313,-1.27478 -7.96379,-1.2952l-11.63018,2.86424c-1.70634,0.85317 -3.44132,1.88885 -5.10558,3.08832h-64.38757c-3.18486,-1.07803 -6.45686,-2.23731 -7.8003,-2.53432c-9.13913,-2.02056 -18.71683,-0.49196 -28.07637,-0.41823c-5.9961,0.04723 -11.30671,1.26598 -17.52451,1c-12.73734,-0.54486 -30.81208,-4.64608 -43.48138,1.95256z" fill="#009eff" stroke="#000000" stroke-width="0.5" stroke-linecap="butt"/><path d="M61.03772,350.88979l349.5,-349.5" fill="none" stroke="#003bff" stroke-width="10" stroke-linecap="round"/><path d="M59.03772,-0.11021l360,360" fill="none" stroke="#003bff" stroke-width="10" stroke-linecap="round"/><path d="M103.65626,360.27125l311.39294,-311.39294" fill="none" stroke="#003bff" stroke-width="10" stroke-linecap="round"/><path d="M158.65935,360.26816l261.37749,-261.37749" fill="none" stroke="#003bff" stroke-width="10" stroke-linecap="round"/><path d="M200.03772,362.88979l221.0857,-221.0857" fill="none" stroke="#003bff" stroke-width="10" stroke-linecap="round"/><path d="M240.03772,363.88979l187.01293,-187.01293" fill="none" stroke="#003bff" stroke-width="10" stroke-linecap="round"/><path d="M302.12666,354.80085l114.88695,-114.88695" fill="none" stroke="#003bff" stroke-width="10" stroke-linecap="round"/><path d="M336.50505,356.42246l83.35876,-83.35876" fill="none" stroke="#003bff" stroke-width="10" stroke-linecap="round"/><path d="M55.1758,290.75171l289.12507,-289.12507" fill="none" stroke="#003bff" stroke-width="10" stroke-linecap="round"/><path d="M57.33245,195.59506l191.55024,-191.55024" fill="none" stroke="#003bff" stroke-width="10" stroke-linecap="round"/><path d="M56.4444,97.48311l101.23312,-101.23312" fill="none" stroke="#003bff" stroke-width="10" stroke-linecap="round"/><path d="M54.69616,143.23134l142.76932,-142.76932" fill="none" stroke="#003bff" stroke-width="10" stroke-linecap="round"/><path d="M293.18111,-2.25361l-238.58117,238.58117" fill="none" stroke="#003bff" stroke-width="10" stroke-linecap="round"/><path d="M54.97458,33.95292l31.89511,-31.89511" fill="none" stroke="#003bff" stroke-width="10" stroke-linecap="round"/><path d="M55.40661,54.25867l302.28943,302.28943" fill="none" stroke="#003bff" stroke-width="10" stroke-linecap="round"/><path d="M371.72479,361.20272l43.04762,-43.04762" fill="none" stroke="#003bff" stroke-width="10" stroke-linecap="round"/><path d="M56.77932,125.63138l231.60199,231.60199" fill="none" stroke="#003bff" stroke-width="10" stroke-linecap="round"/><path d="M189.04873,365.90079l-137.01573,-137.01573" fill="none" stroke="#003bff" stroke-width="10" stroke-linecap="round"/><path d="M49.14564,313.99771l46.21105,46.21105" fill="none" stroke="#003bff" stroke-width="10" stroke-linecap="round"/><path d="M121.13374,-2.01419l297.56381,297.56381" fill="none" stroke="#003bff" stroke-width="10" stroke-linecap="round"/><path d="M190.66875,0.52081l228.01657,228.01657" fill="none" stroke="#003bff" stroke-width="10" stroke-linecap="round"/><path d="M256.50231,3.35437l170.55684,170.55684" fill="none" stroke="#003bff" stroke-width="10" stroke-linecap="round"/><path d="M307.03892,-1.10901l112.70331,112.70331" fill="none" stroke="#003bff" stroke-width="10" stroke-linecap="round"/><path d="M359.75354,-2.3944l55.18903,55.18903" fill="none" stroke="#003bff" stroke-width="10" stroke-linecap="round"/></g></g></svg>