<svg version="1.1" xmlns="http://www.w3.org/2000/svg" xmlns:xlink="http://www.w3.org/1999/xlink" width="59.97041" height="75.67857" viewBox="0,0,59.97041,75.67857"><g transform="translate(-202.3207,-124.83206)"><g data-paper-data="{&quot;isPaintingLayer&quot;:true}" fill-rule="nonzero" stroke-linejoin="miter" stroke-miterlimit="10" stroke-dasharray="" stroke-dashoffset="0" style="mix-blend-mode: normal"><g><g fill="none" stroke="#ff0000" stroke-width="2.5" stroke-linecap="round"><path d="M239.93207,143.87557l-7.6085,-2.18421" data-paper-data="{&quot;index&quot;:null}"/><path d="M239.32167,136.57901l-6.94076,4.78021"/></g><g fill="none" stroke="#ff0000" stroke-width="2.5" stroke-linecap="round"><path d="M237.93207,143.87557l-7.6085,-2.1842" data-paper-data="{&quot;index&quot;:null}"/><path d="M237.32167,136.57901l-6.94076,4.78021"/></g><g fill="none" stroke="#ff0000" stroke-width="2.5" stroke-linecap="round"><path d="M238.65617,144.58986l-11.3326,-3.2533" data-paper-data="{&quot;index&quot;:null}"/><path d="M237.747,133.72187l-10.33804,7.11997"/></g><g fill="none" stroke="#ff0000" stroke-width="2.5" stroke-linecap="round"><path d="M240.14343,146.87557l-16.24842,-4.66451" data-paper-data="{&quot;index&quot;:null}"/><path d="M238.83988,131.2933l-14.82244,10.20844"/></g><g fill="none" stroke="#ff0000" stroke-width="2.5" stroke-linecap="round"><path d="M240.27779,148.30414l-19.52564,-5.60531" data-paper-data="{&quot;index&quot;:null}"/><path d="M238.71132,129.57901l-17.81204,12.26743"/></g><g fill="none" stroke="#ff0000" stroke-width="2.5" stroke-linecap="round"><path d="M239.84921,149.16128l-22.6685,-5.60531" data-paper-data="{&quot;index&quot;:null}"/><path d="M238.03061,130.43615l-20.67908,12.26743"/></g><g fill="none" stroke="#ff0000" stroke-width="2.5" stroke-linecap="round"><path d="M239.27779,150.30414l-25.6685,-5.60531" data-paper-data="{&quot;index&quot;:null}"/><path d="M237.21851,131.57901l-23.4158,12.26743"/></g><g fill="none" stroke="#ff0000" stroke-width="2.5" stroke-linecap="round"><path d="M235.84921,150.58986l-25.6685,-5.60532" data-paper-data="{&quot;index&quot;:null}"/><path d="M233.78993,131.86473l-23.4158,12.26743"/></g><g fill="none" stroke="#ff0000" stroke-width="2.5" stroke-linecap="round"><path d="M236.08843,151.447l-29.19343,-6.37507" data-paper-data="{&quot;index&quot;:null}"/><path d="M233.74635,130.15044l-26.63138,13.95206"/></g><g fill="none" stroke="#ff0000" stroke-width="2.5" stroke-linecap="round"><path d="M238.94557,153.16129l-35.37488,-7.44417" data-paper-data="{&quot;index&quot;:null}"/><path d="M236.10759,128.29329l-32.27033,16.29182"/></g><path d="M234.71967,128.65349v22.28571" fill="none" stroke="#ff0000" stroke-width="2.5" stroke-linecap="round"/><path d="M215.57682,186.4392c0,-7.77144 10.45735,-14.07143 23.35714,-14.07143c12.89979,0 23.35714,6.29999 23.35714,14.07143c0,7.77144 -10.45735,14.07143 -23.35714,14.07143c-12.89979,0 -23.35714,-6.29999 -23.35714,-14.07143z" fill="#000000" stroke="none" stroke-width="none" stroke-linecap="butt"/><path d="M222.2911,182.07813c0,-5.36288 7.45126,-9.71035 16.64286,-9.71035c9.1916,0 16.64286,4.34747 16.64286,9.71035c0,5.36288 -7.45126,9.71035 -16.64286,9.71035c-9.1916,0 -16.64286,-4.34747 -16.64286,-9.71035z" fill="#0e0e0e" stroke="none" stroke-width="none" stroke-linecap="butt"/><path d="M239.2911,128.58206v51.64286" fill="none" stroke="#ffffff" stroke-width="7.5" stroke-linecap="round"/></g></g></g></svg>